# xmcd
#
# Track frame offsets:
#	150
#	19214
#	41827
#	59655
#	76472
#	88530
#	101190
#	120317
# Disc length: 1903 seconds
# Revision: 1
# Processed by: cddbd v1.5.2PL0 Copyright (c) Steve Scherf et al.
#
# Submitted via: libkcddb 0.31
#
DISCID=66076d08
DTITLE=Down and Out - Play 'Em Like You Feel 'Em
DYEAR=2007
DGENRE=Blues
TTITLE0=Down and Out - Hoochie Coochie Man
TTITLE1=Down and Out - A Hard Road
TTITLE2=Down and Out - Pretty Woman
TTITLE3=Down and Out - I Made Up My Mind
TTITLE4=Down and Out - I'm Tore Down
TTITLE5=Down and Out - I Just Want a Little Bit
TTITLE6=Down and Out - Reconsider Baby
TTITLE7=Down and Out - Leavin' Trunk
EXTD=Dave Corbo and Gary Berkowitz
EXTT0=Muddy Waters
EXTT1=John Mayall
EXTT2=Albert King
EXTT3=Chris Youlden
EXTT4=Sonny Thompson
EXTT5=Sam Maghrett
EXTT6=Lowell Fulson
EXTT7=Sleepy John Estes
PLAYORDER=
